<svg xmlns="http://www.w3.org/2000/svg" width="21" height="21" fill="none"><g clip-path="url(#clip0_7413_16231)" stroke-width=".563"><path d="M1.102 11.72l2.553-2.516 4.347-.77-.43 2.275-5.877 1.806-.38-.164-.213-.632z" fill="#CA2C31" stroke="#CA2C31"></path><path d="M4.096 9.85l-2.772 2.52 2.04.993 3.095-1.58v-.745l.632-1.706-2.995.519zm6.56 4.437l-1.34.581-1.264 2.68s1.113 2.464 1.163 2.464c.05 0 .683.05.683.05l2.25-2.516.568-4.297-2.06 1.038z" fill="#A02422" stroke="#A02422"></path><path d="M9.34 16.266s.745-.151 1.277-.404c.531-.253 1.187-.632 1.187-.632l-.24 2.099-2.352 2.677s-.092-.115-.483-.965c-.31-.678-.418-.92-.418-.92l1.03-1.855z" fill="#CA2C31" stroke="#CA2C31"></path><path d="M5.446 13.114s-.897-.075-1.88 1.167c-.897 1.135-1.317 2.982-1.48 3.457-.162.475-.551.572-.421.789.13.217.69.204 1.382.118.693-.085 1.286-.303 1.286-.303s-.03.075-.13.238c-.035.058-.16.14-.15.226.021.205 1.774.21 3.174-1.23 1.513-1.556.778-2.83.778-2.83l-2.56-1.632z" fill="#F7D74D" stroke="#F7D74D"></path><path d="M5.716 13.84s-.967.051-1.767 1.294c-.8 1.242-1.172 2.68-1.095 2.778.075.097 1.565-.442 1.923-.335.245.075.119.324.184.39.055.054.702.146 1.749-.988 1.048-1.134.8-2.728.8-2.728l-1.794-.411z" fill="#FBF0B4" stroke="#FBF0B4"></path><path d="M6.191 12.145s-.486.432-.66.68c-.173.25-.173.271-.162.346.011.075.19.899.94 1.62.918.886 1.738 1.005 1.857 1.005s.908-.886.908-.886L6.19 12.145z" fill="#858585" stroke="#858585"></path><path d="M8.34 14.768s.787.517 2.108.073c1.804-.606 3.128-1.962 4.767-3.675 1.581-1.653 2.908-3.704 2.908-3.704l-.93-3.114-8.853 10.42z" fill="#437687" stroke="#437687"></path><path d="M11.135 13.062l.217-.675.544.076s.414.196.718.338c.305.142.697.25.697.25l-.773.653s-.422-.16-.73-.294a6.654 6.654 0 01-.673-.348z" fill="#3F545F" stroke="#3F545F"></path><path d="M13.686 3.035s-1.503.872-3.658 2.911c-1.942 1.838-3.381 3.5-3.73 4.914-.29 1.184-.136 1.903.525 2.68.699.822 1.518 1.23 1.518 1.23s.615.009 3.184-1.968c3.205-2.467 5.772-6.598 5.772-6.598l-3.611-3.169z" fill="#8DAFBF" stroke="#8DAFBF"></path><path d="M16.79 7.051s-1.307-.558-2.24-1.86c-.927-1.291-.853-2.165-.853-2.165s.775-.608 2.517-1.303c1.172-.467 2.767-.706 3.292-.317.525.389-.36 2.34-.36 2.34l-1.61 3.12-.746.185z" fill="#D83F22" stroke="#D83F22"></path><path d="M11.163 13.076s-1.13-.577-1.849-1.397C7.955 10.13 7.674 8.43 7.674 8.43l.683-.801s.17 1.806 1.628 3.367c.95 1.017 1.942 1.483 1.942 1.483s-.198.167-.411.33l-.353.267z" fill="#6896A5" stroke="#6896A5"></path><path d="M18.122 7.463s.678-.817 1.32-2.66c.897-2.568.116-3.346.116-3.346s-.264 1.222-1.181 2.92a33.566 33.566 0 01-1.627 2.657s.49.22.756.296c.335.097.616.133.616.133z" fill="#A02422" stroke="#A02422"></path><path d="M6.733 11.395c.203.194.51-.01.712-.484.203-.475.2-.74.044-.853-.194-.14-.519.167-.66.44-.157.304-.25.75-.096.897zm7.053-7.739s-1.19.855-2.458 2.017C10.164 6.741 9.392 7.575 9.286 7.77c-.113.208-.114.501-.027.651.088.15.282.228.458.097.177-.133 1.434-1.523 2.57-2.517 1.04-.91 1.841-1.486 1.841-1.486s.325-.575.272-.706c-.053-.133-.614-.152-.614-.152z" fill="#B3E1EE" stroke="#B3E1EE"></path><path d="M13.785 3.659s.878-.674 1.835-1.147c.889-.44 1.773-.808 1.932-.49.152.304-.839.716-1.71 1.273-.873.556-1.712 1.22-1.712 1.22s-.128-.235-.21-.452a3.739 3.739 0 01-.135-.404z" fill="#ED6A65" stroke="#ED6A65"></path><path d="M14.51 6.644a1.853 1.853 0 00-2.678.127 1.854 1.854 0 00.156 2.531c.658.613 1.882.752 2.619-.108.656-.762.616-1.895-.097-2.55z" fill="#E1E1E1" stroke="#E1E1E1"></path><path d="M12.281 7.055c-.517.508-.489 1.514.127 1.973.537.402 1.3.381 1.778-.108s.478-1.378.03-1.837c-.516-.527-1.342-.61-1.934-.028z" fill="#3F545F" stroke="#3F545F"></path><path d="M8.324 12.528s.967-.982 1.074-.875c.106.106.092.701-.37 1.364-.465.662-1.485 1.842-2.293 2.637-.797.783-1.92 1.678-2.027 1.663-.082-.013-.418-.18-.553-.343-.13-.16.261-.921.42-1.173.158-.252 3.75-3.273 3.75-3.273z" fill="#A02524" stroke="#A02524"></path><path d="M3.828 16.424c-.012.225.332.553.332.553l5.237-5.326s-.245-.277-.967.172c-.728.453-1.366.996-2.306 1.907-1.311 1.272-2.283 2.47-2.296 2.694z" fill="#CA2C31" stroke="#CA2C31"></path><path d="M3.489 6.286c-.174.173-.181.451.012.61.172.143.452.05.557-.078.104-.128.092-.406-.047-.543-.14-.14-.416-.094-.522.01z" fill="#fff" stroke="#fff"></path><path opacity=".5" d="M6.92 6.082c-.13.145-.089.361.033.44.122.08.305.073.394-.037a.33.33 0 00-.033-.417c-.106-.105-.31-.08-.394.014z" fill="#fff" stroke="#fff"></path><path d="M9.191 2.37s.19-.543.303-.55c.114-.006.278.544.278.544s.564.006.602.09c.048.105-.36.462-.36.462s.132.53.07.595c-.07.07-.557-.21-.557-.21s-.5.349-.608.254c-.093-.083.102-.646.102-.646s-.469-.342-.444-.437c.036-.134.614-.102.614-.102zm6.478 13.038c.19.105.427.045.514-.156.08-.18-.067-.394-.2-.452-.132-.058-.365.019-.45.17-.082.15.022.375.136.438zm2.685-4.608c-.108-.167-.34-.222-.492-.087-.147.13-.111.337-.029.442.083.104.305.144.44.058.134-.086.146-.313.08-.413z" fill="#fff" stroke="#fff"></path></g><defs><clipPath id="clip0_7413_16231"><path fill="#fff" transform="translate(.512 .512)" d="M0 0h20v20H0z"></path></clipPath></defs></svg>